<svg version="1.1" viewBox="0 0 16 16" xmlns="http://www.w3.org/2000/svg"><path d="m6.5 1.2c-0.67 0.15-1.3 0.37-1.9 0.66 0.01 0.53 0.06 1.1 0.13 1.6-0.5 0.28-0.96 0.62-1.4 1-0.4-0.28-0.83-0.52-1.3-0.73-0.5 0.51-0.93 1.1-1.3 1.7 0.27 0.43 0.56 0.86 0.87 1.3v5c0 4.3 13 4.3 13 0l0.02-5c0.31-0.4 0.6-0.83 0.87-1.3-0.36-0.62-0.79-1.2-1.3-1.7-0.45 0.21-0.88 0.45-1.3 0.73-0.42-0.38-0.88-0.72-1.4-1 0.07-0.53 0.12-1.1 0.13-1.6-0.62-0.29-1.3-0.51-1.9-0.66-0.27 0.45-0.51 0.91-0.71 1.4-0.51-0.07-1-0.07-1.5 0-0.2-0.48-0.44-0.94-0.71-1.4z" fill="#478cbf"/><g fill="#fff"><circle cx="4.7" cy="8.2" r="1.4"/><circle cx="11" cy="8.2" r="1.4"/><path d="m7.6 9.4c0.05 0.53 0.86 0.53 0.91 0v-1.4c-0.05-0.53-0.87-0.53-0.91 0z"/><path d="m1.6 11v0.51l2.1 0.19 0.08 1.1c0.02 0.1 0.09 0.17 0.22 0.2l2.5 0.17c0.12 0 0.21-0.06 0.25-0.17l0.16-1h2l0.15 1c0.04 0.11 0.13 0.17 0.25 0.17l2.5-0.17c0.12-0.03 0.2-0.1 0.22-0.2l0.08-1.1 2.1-0.19v-0.52l-2.4 0.22c-0.13 0.01-0.2 0.08-0.23 0.22l-0.06 1-2.1 0.16-0.12-0.96c-0.02-0.11-0.1-0.19-0.23-0.23h-2.5c-0.13 0.04-0.21 0.12-0.23 0.23l-0.12 0.96-2.1-0.16-0.06-1c-0.03-0.13-0.11-0.21-0.23-0.22z"/></g><circle cx="4.8" cy="8.3" r=".94" fill="#414042"/><circle cx="11" cy="8.3" r=".94" fill="#414042"/></svg>
