<svg version="1.1" viewBox="0 0 512 192" xmlns="http://www.w3.org/2000/svg"><path d="m90 15c-7.7 1.7-15 4.2-22 7.6 0.1 6.1 0.6 12 1.4 18-5.7 3.3-11 7.1-16 12-4.7-3.3-9.6-6.1-15-8.5-5.7 5.9-11 12-15 19 3.1 5.1 6.5 9.9 10 15l-0.2 57c0 50 147 50 147 0v-57c3.6-4.7 7-9.5 10-15-4.2-7.1-9.2-14-15-19-5.1 2.4-10 5.2-15 8.5-4.8-4.5-10-8.3-16-12 0.9-6.1 1.3-12 1.4-18-7.1-3.3-14-5.9-22-7.6-3.1 5.1-5.9 10-8.3 16-5.9-0.9-12-0.9-18 0-2.4-5.5-5.2-11-8.3-16z" fill="#478cbf"/><g fill="#fff"><path d="m181 122-27 2.5c-1.5 0.1-2.4 1-2.7 2.5l-0.7 12-24 1.8-1.4-11c-0.3-1.3-1.2-2.2-2.7-2.7h-29c-1.5 0.5-2.4 1.4-2.7 2.7l-1.4 11-24-1.8-0.7-12c-0.3-1.5-1.2-2.4-2.7-2.5l-27-2.5v5.9l24 2.2 0.9 12c0.2 1.2 1 2 2.5 2.3l29 2c1.5 0 2.4-0.7 2.9-2l1.8-12h23l1.8 12c0.5 1.3 1.4 2 2.9 2l29-2c1.4-0.3 2.2-1.1 2.5-2.3l0.9-12 24-2.2z"/><circle cx="69" cy="96" r="16"/><circle cx="146" cy="96" r="16"/><path d="m102 109c0.5 6.1 9.9 6.1 10 0v-16c-0.5-6.1-9.9-6.1-10 0z"/><path d="m262 84c-4.6-0.1-9.8 0.9-9.8 0.9v8.9h5.3l-0.1 4c0 1.5-1.5 2.2-4.4 2.2s-5.5-1.2-7.7-3.7-3.4-6.1-3.4-11c0-4.8 1.1-8.3 3.3-10 2.2-2.3 5-3.4 8.5-3.4 1.5 0 3 0.2 4.6 0.7s2.6 0.9 3.2 1.4c0.5 0.4 1 0.6 1.5 0.6s1.3-0.6 2.3-1.7c1.1-1.1 2-2.8 2.9-5.1 0.8-2.3 1.3-4.1 1.3-5.3s-0-2.1-0.1-2.5c-1.2-1.3-3.4-2.3-6.6-3.1s-6.8-1.1-11-1.1c-8.7 0-16 2.7-20 8.2-4.9 5.5-7.4 13-7.4 21 0 10 2.5 18 7.6 23 5 5.3 12 8 20 8 4.4 0 8.3-0.4 12-1.1 3.4-0.8 5.7-1.5 6.8-2.3l0.3-27c0-1.5-4.1-2.2-8.6-2.3zm42-12c-2.7 0-5 1.2-6.8 3.7s-2.8 6-2.8 10 0.9 8 2.6 10c1.8 2.4 4.1 3.6 6.9 3.6 2.9 0 5.2-1.2 7-3.7 1.8-2.4 2.7-5.9 2.7-10s-0.9-8-2.8-10c-1.8-2.4-4.1-3.6-6.8-3.6m-0 45c-8 0-14-2.6-19-7.8s-7.5-13-7.5-23 2.5-18 7.6-23 12-7.7 20-7.7 14 2.5 19 7.6 7.4 13 7.4 23-2.5 18-7.6 23c-5 5-12 7.5-20 7.5m51-44v25c0 1.2 0.1 1.9 0.3 2.2s0.7 0.5 1.5 0.5c3.1 0 5.5-1.2 7.1-3.5s2.4-6.2 2.4-12-0.8-8.9-2.5-11c-1.7-1.6-4.3-2.5-7.9-2.5zm-16 39v-51c0-1.4 0.4-2.5 1.1-3.4 0.7-0.8 1.6-1.2 2.8-1.2h14c9 0 16 2.3 20 6.8s7 12 7 21c0 21-8.9 31-27 31h-14c-2.9 0-4.3-1.3-4.3-3.9m78-40c-2.7 0-5 1.2-6.8 3.7s-2.8 6-2.8 10 0.9 8 2.6 10c1.8 2.4 4.1 3.6 6.9 3.6 2.9 0 5.2-1.2 7-3.7 1.8-2.4 2.7-5.9 2.7-10s-0.9-8-2.8-10c-1.8-2.4-4.1-3.6-6.8-3.6m-0 45c-8 0-14-2.6-19-7.8s-7.5-13-7.5-23 2.5-18 7.6-23 12-7.7 20-7.7 14 2.5 19 7.6 7.4 13 7.4 23-2.5 18-7.6 23c-5 5-12 7.5-20 7.5m59-2.1c0 1.1-2.8 1.7-8.4 1.7s-8.4-0.6-8.4-1.7v-43h-10c-1 0-1.6-1.3-2-3.9a28 28 0 0 1-0.3-3.8c0-1.3 0.1-2.6 0.3-3.8 0.4-2.6 1.1-3.9 2-3.9h37c1 0 1.6 1.3 2 3.9 0.2 1.2 0.3 2.5 0.3 3.8s-0.1 2.6-0.3 3.8c-0.4 2.6-1.1 3.9-2 3.9h-9.9z"/></g><path d="m244 152c-0.5 1-1.3 1.8-2.6 2.6s-2.9 1.2-4.8 1.2c-2.6 0-4.6-0.8-6.2-2.4s-2.3-4-2.3-7v-7.6c0-3 0.7-5.3 2.2-6.9s3.5-2.4 5.9-2.4 4.3 0.6 5.6 1.9 2 3 2.1 5.3v0.1h-2c-0.1-1.7-0.6-3.1-1.5-4s-2.3-1.4-4.2-1.4-3.3 0.6-4.4 1.9-1.6 3.1-1.6 5.5v7.7c0 2.5 0.6 4.4 1.7 5.7 1.2 1.3 2.7 1.9 4.7 1.9 1.4 0 2.6-0.3 3.5-0.8s1.5-1.1 1.8-1.9v-6.7h-5.3v-1.9h7.4zm9.8 2c1.2 0 2.2-0.3 3.1-1s1.5-1.5 1.9-2.6v-4.1h-3.4c-1.4 0-2.6 0.4-3.4 1.2-0.9 0.8-1.3 1.8-1.3 3 0 1 0.3 1.8 0.8 2.5 0.5 0.6 1.3 1 2.3 1m5.4 1.5a50 50 0 0 1-0.2-1.6 11 11 0 0 1-0.1-1.3 7.4 7.4 0 0 1-2.2 2.3c-0.9 0.6-1.9 0.9-3.1 0.9-1.6 0-2.8-0.5-3.6-1.5-0.9-1-1.3-2.3-1.3-4 0-1.8 0.6-3.2 1.9-4.2 1.2-1 2.9-1.6 5-1.6h3.3v-2.3c0-1.3-0.3-2.4-1-3.2s-1.6-1.1-2.9-1.1c-1.1 0-2.1 0.4-2.8 1.1s-1.1 1.6-1.1 2.7h-2v-0.1c-0.1-1.4 0.5-2.7 1.6-3.8s2.6-1.7 4.4-1.7 3.2 0.5 4.3 1.6 1.6 2.6 1.6 4.6v9.3c0 0.7 0 1.3 0.1 2a12 12 0 0 0 0.3 1.9zm8.5-19 0.2 3c0.5-1.1 1.2-1.9 2-2.4 0.8-0.6 1.8-0.9 2.9-0.9s2.1 0.3 2.9 1 1.4 1.7 1.7 3.1c0.5-1.3 1.1-2.3 2-3s1.9-1.1 3.1-1.1c1.7 0 3 0.7 3.9 2 0.9 1.4 1.4 3.4 1.4 6.2v11h-2.1v-11c0-2.3-0.3-4-0.9-4.9s-1.5-1.4-2.7-1.4-2.2 0.5-2.9 1.6-1.1 2.4-1.3 4v12h-2.1v-11c0-2.3-0.3-3.9-1-4.9-0.6-1-1.6-1.5-2.7-1.5s-2 0.3-2.7 1-1.2 1.6-1.4 2.8v14h-2.1v-19zm31 1.5c-1.3 0-2.4 0.6-3.3 1.8s-1.3 2.7-1.3 4.5h8.8v-0.8c0-1.6-0.4-2.9-1.1-3.9s-1.8-1.6-3.1-1.6m0.3 18c-2 0-3.7-0.8-5-2.3s-1.9-3.5-1.9-5.9v-3.2c0-2.4 0.7-4.4 2-6s2.9-2.4 4.7-2.4c2 0 3.5 0.7 4.6 2.1s1.7 3.3 1.7 5.7v2.1h-11v1.6c0 1.8 0.4 3.4 1.3 4.6s2.1 1.8 3.6 1.8c1 0 1.9-0.2 2.7-0.5a5.6 5.6 0 0 0 1.9-1.6l0.9 1.5c-0.6 0.7-1.3 1.3-2.2 1.8-0.9 0.4-2 0.7-3.3 0.7m23-18c-1.3 0-2.4 0.6-3.3 1.8-0.8 1.2-1.3 2.7-1.3 4.5h8.8v-0.8c0-1.6-0.4-2.9-1.1-3.9s-1.8-1.6-3.1-1.6m0.3 18c-2 0-3.7-0.8-5-2.3s-2-3.5-2-5.9v-3.2c0-2.4 0.7-4.4 2-6s2.9-2.4 4.7-2.4c2 0 3.5 0.7 4.6 2.1s1.7 3.3 1.7 5.7v2.1h-11v1.6c0 1.8 0.4 3.4 1.3 4.6s2.1 1.8 3.6 1.8c1 0 1.9-0.2 2.7-0.5a5.6 5.6 0 0 0 1.9-1.6l0.9 1.5c-0.6 0.7-1.3 1.3-2.2 1.8-0.9 0.4-2 0.7-3.3 0.7m12-19 0.2 3.1c0.5-1.1 1.2-2 2-2.6s1.8-0.9 2.9-0.9c1.7 0 3 0.6 3.9 1.9s1.4 3.2 1.4 5.9v12h-2.1v-12c0-2.2-0.3-3.7-0.9-4.6s-1.6-1.3-2.8-1.3c-1.1 0-2 0.4-2.7 1.1s-1.3 1.6-1.6 2.8v14h-2.2v-19zm17 11c0 1.9 0.4 3.5 1.1 4.6 0.7 1.2 1.8 1.7 3.3 1.7 1 0 1.9-0.3 2.6-0.8 0.7-0.6 1.3-1.3 1.7-2.3v-9.4c-0.4-1-0.9-1.8-1.6-2.5-0.7-0.6-1.6-0.9-2.6-0.9-1.5 0-2.6 0.6-3.4 1.9s-1.1 3-1.1 5.1zm-2.1-2.6c0-2.7 0.5-4.9 1.6-6.5s2.6-2.4 4.5-2.4c1.1 0 2 0.3 2.8 0.8s1.5 1.3 2 2.2l0.2-2.6h1.8v19c0 2.4-0.6 4.3-1.7 5.7-1.1 1.3-2.7 2-4.8 2-0.8 0-1.6-0.1-2.4-0.3-0.9-0.2-1.6-0.5-2.3-0.9l0.6-1.9a7.1 7.1 0 0 0 1.9 0.9 7.6 7.6 0 0 0 2.2 0.3c1.5 0 2.6-0.5 3.4-1.5 0.7-1 1.1-2.4 1.1-4.3v-2.3c-0.5 0.9-1.2 1.5-2 2s-1.7 0.7-2.7 0.7c-1.9 0-3.4-0.7-4.5-2.2s-1.6-3.5-1.6-6zm20 10h-2.1v-19h2.1zm0-24h-2.1v-3h2.1zm6.9 5.4 0.2 3.1c0.5-1.1 1.2-2 2-2.6s1.8-0.9 2.9-0.9c1.7 0 3 0.6 3.9 1.9s1.4 3.2 1.4 5.9v12h-2.1v-12c0-2.2-0.3-3.7-0.9-4.6s-1.6-1.3-2.8-1.3c-1.1 0-2 0.4-2.7 1.1s-1.3 1.6-1.6 2.8v14h-2.1v-19zm21 1.5c-1.3 0-2.4 0.6-3.3 1.8-0.8 1.2-1.3 2.7-1.3 4.5h8.8v-0.8c0-1.6-0.4-2.9-1.1-3.9s-1.8-1.6-3.1-1.6m0.3 18c-2.1 0-3.7-0.8-5-2.3s-2-3.5-2-5.9v-3.2c0-2.4 0.7-4.4 2-6s2.9-2.4 4.7-2.4c2 0 3.5 0.7 4.6 2.1s1.6 3.3 1.6 5.7v2.1h-11v1.6c0 1.8 0.4 3.4 1.3 4.6s2.1 1.8 3.6 1.8c1 0 1.9-0.2 2.7-0.5a5.6 5.6 0 0 0 1.9-1.6l0.9 1.5c-0.6 0.7-1.3 1.3-2.2 1.8-0.9 0.4-2 0.7-3.3 0.7" fill="#e0e0e0"/><circle cx="70" cy="97" r="11" fill="#414042"/><circle cx="144" cy="97" r="11" fill="#414042"/></svg>
