<svg version="1.1" viewBox="0 0 256 256" xmlns="http://www.w3.org/2000/svg"><path d="m154 39-28-25-28 25-40-25v99c0.3 8.3 3.7 16 9.2 23v29c-12 0.7-23 0-35-0.3-8.9 0.1-18 4.6-23 12-5.4 8-6.4 18-3.3 28 3.5 10 11 15 16 17l1.2 18c8.2 0.2 16 0.9 24-1.3 11-2.8 18-11 20-18h29c-3.5 6.5-6.9 13-10 20h77v-18h19l1.2 17c8.2 0.2 16 0.9 24-1.3 6.4-1.7 16-6.3 19-18 8.7 0.3 18-3.9 22-11 4.8-7 5.8-16 3.6-24-3.6-13-16-20-28-19-12 0.9-20 0.5-30 0.1-5.1-0.3-10 0.7-15 3.1-1.5-3.4-2.9-6.7-4.4-10 1.9-4.4 2.2-9.2 2.2-14 15-10 18-24 18-36v-94l-40 25z" fill="#fff7f8"/><path d="m126 22-28 24-35-22v86c0 13 7.2 22 18 29 0 4.4-0.3 8.8 1 13l-9.8-7.4v25c-13 0.5-26 0.8-40-0.1h-0.6c-12 0-22 9-22 23 0 8.8 4.3 19 17 23l1.1 16c9.2 0.3 18 0.3 26-5.6 4.1-3.4 7.6-7.9 8.5-14h38v-7.6l7.4 5-12 22h61v-18h30l1.2 18c9.2 0.3 18 0.3 26-5.6 4.3-3.6 6.8-9 7.6-15 1.8 0.5 3.6 0.8 5.4 0.8 11 0 20-8.1 20-21 0-14-10-21-20-21-12 1-23 1-35 0.2-8.4 0-13 3.4-16 6.4l-8.5-20c3.3-5.1 2.8-11 2.8-17 11-6.3 18-16 18-29v-86l-35 22z" fill="#2d2523"/><path d="m126 34 27 23 27-16v43h-108v-43l27 16z" fill="#ffda45"/><path d="m72 93v18c0 12 7.2 22 18 25v11c0 5.4 3.6 9 9 9s9-3.6 9-9c0 5.4 3.6 9 9 9s9-3.6 9-9c0 5.4 3.6 9 9 9s9-3.6 9-9c0 5.4 3.6 9 9 9s9-3.6 9-9v-11c11-3.6 18-14 18-25v-18z" fill="#fff7f8"/><path d="m83 111c0 9.9 8.1 18 18 18s18-8.1 18-18zm50 0c0 9.9 8.1 18 18 18s18-8.1 18-18zm-7.2 9-9 18 9-4.5 9 4.5z" fill="#2d2523"/><path d="m110 111c0 5.4-3.6 9-9 9s-9-3.6-9-9zm50 0c0 5.4-3.6 9-9 9s-9-3.6-9-9z" fill="#b2acad"/><path d="m81 164v40h10v-16l26 17v-34h-10v12zm80 0-18 42h15l3.3-7.4 3.1 7.4h16zm66 15c-6.8 0-11 5-11 12 0 7.3 4.5 12 11 12 7 0 11-4.9 11-12 0-7.2-4.1-12-11-12zm-107 0.1v11h8.4l-18 34h37v-10h-16l18-34zm72 0.1c-6.4 0-13 4.4-13 14s6.7 14 13 14h9.7c0 4-2.1 6.4-5.8 6.4l0.6 9.3c9.6 0 17-4.1 17-16v-28c-7 0.3-14-0.2-21-0.6zm-160 0.1c-6.4 0-13 4.4-13 14s6.7 14 13 14h9.7c0 4-2.1 6.4-5.8 6.4l0.6 9.3c9.6 0 17-4.1 17-16v-28c-7 0.3-14-0.2-21-0.6zm35 0.5c-6.9 0-11 5-11 12s4.4 12 11 12 11-5 11-12-4.1-12-11-12z" fill="#ff4f69"/></svg>
