<svg version="1.1" viewBox="0 0 64 64" xmlns="http://www.w3.org/2000/svg"><path d="m8 3.8v34c0 4.7 2.5 8.5 6 11-0.1 2.8 0.6 5.3 2.7 7.2 1.7 2.1 4.1 2.7 6.3 2.7h18c2.2 0 4.6-0.6 6.3-2.7 2.2-1.8 2.7-4.5 2.7-7.2 3.5-2.6 6-6.4 6-11v-34l-14 8.9-9.6-8.4-9.6 8.4z" fill="#fff7f8"/><path d="m32 8.3-9.3 8.1-12-7.2v29c0 4.2 2.4 7.5 6 9.6v2.4c0 1.5 0.6 3.3 1.8 4.2 0.9 1.2 2.7 1.8 4.2 1.8h18c1.5 0 3.3-0.6 4.2-1.8 1.2-0.9 1.8-2.7 1.8-4.2v-2.4c3.6-2.1 6-5.4 6-9.6v-29l-12 7.2z" fill="#2d2523"/><path d="m32 12 9 7.8 9-5.4v14h-36v-14l9 5.4z" fill="#ffda45"/><path d="m14 32v6c0 3.9 2.4 7.2 6 8.4v3.6c0 1.8 1.2 3 3 3s3-1.2 3-3c0 1.8 1.2 3 3 3s3-1.2 3-3c0 1.8 1.2 3 3 3s3-1.2 3-3c0 1.8 1.2 3 3 3s3-1.2 3-3v-3.6c3.6-1.2 6-4.5 6-8.4v-6z" fill="#fff7f8"/><path d="m18 38c0 3.3 2.7 6 6 6s6-2.7 6-6zm17 0c0 3.3 2.7 6 6 6s6-2.7 6-6zm-2.4 3-3 6 3-1.5 3 1.5z" fill="#2d2523"/><path d="m27 38c0 1.8-1.2 3-3 3s-3-1.2-3-3zm17 0c0 1.8-1.2 3-3 3s-3-1.2-3-3z" fill="#b2acad"/></svg>
